<?xml version="1.0" encoding="UTF-8" standalone="no"?>
<!DOCTYPE svg PUBLIC "-//W3C//DTD SVG 1.1//EN"
 "http://www.w3.org/Graphics/SVG/1.1/DTD/svg11.dtd">
<!-- Generated by graphviz version 2.43.0 (0)
 -->
<!-- Title: com.teragrep.cfe18.controllerTests.HostGroupsControllerTest.testDeleteHostGroupInUse Pages: 1 -->
<svg width="436pt" height="86pt"
 viewBox="0.00 0.00 436.00 86.00" xmlns="http://www.w3.org/2000/svg" xmlns:xlink="http://www.w3.org/1999/xlink">
<g id="graph0" class="graph" transform="scale(1 1) rotate(0) translate(4 82)">
<title>com.teragrep.cfe18.controllerTests.HostGroupsControllerTest.testDeleteHostGroupInUse</title>
<!-- Node1 -->
<g id="Node000001" class="node">
<title>Node1</title>
<g id="a_Node000001"><a xlink:title=" ">
<polygon fill="#999999" stroke="#666666" points="191,-59.5 0,-59.5 0,-18.5 191,-18.5 191,-59.5"/>
<text text-anchor="start" x="8" y="-47.5" font-family="Helvetica,sans-Serif" font-size="10.00">com.teragrep.cfe18.controller</text>
<text text-anchor="start" x="8" y="-36.5" font-family="Helvetica,sans-Serif" font-size="10.00">Tests.HostGroupsControllerTest.test</text>
<text text-anchor="middle" x="95.5" y="-25.5" font-family="Helvetica,sans-Serif" font-size="10.00">DeleteHostGroupInUse</text>
</a>
</g>
</g>
<!-- Node2 -->
<g id="Node000002" class="node">
<title>Node2</title>
<g id="a_Node000002"><a xlink:href="classcom_1_1teragrep_1_1cfe18_1_1controllerTests_1_1TestApiClient.html#ae0cb37b5c34507f5e116ac9c9b2a4a3c" target="_top" xlink:title=" ">
<polygon fill="white" stroke="#666666" points="428,-78 227,-78 227,-48 428,-48 428,-78"/>
<text text-anchor="start" x="235" y="-66" font-family="Helvetica,sans-Serif" font-size="10.00">com.teragrep.cfe18.controller</text>
<text text-anchor="middle" x="327.5" y="-55" font-family="Helvetica,sans-Serif" font-size="10.00">Tests.TestApiClient.insertHostToGroup</text>
</a>
</g>
</g>
<!-- Node1&#45;&gt;Node2 -->
<g id="edge1_Node000001_Node000002" class="edge">
<title>Node1&#45;&gt;Node2</title>
<g id="a_edge1_Node000001_Node000002"><a xlink:title=" ">
<path fill="none" stroke="#63b8ff" d="M191.05,-48.87C199.51,-49.75 208.12,-50.65 216.69,-51.54"/>
<polygon fill="#63b8ff" stroke="#63b8ff" points="216.42,-55.03 226.73,-52.59 217.15,-48.07 216.42,-55.03"/>
</a>
</g>
</g>
<!-- Node3 -->
<g id="Node000003" class="node">
<title>Node3</title>
<g id="a_Node000003"><a xlink:href="classcom_1_1teragrep_1_1cfe18_1_1controllerTests_1_1TestApiClient.html#a423b9ca7d8d2865e7ce9742ba1ca3922" target="_top" xlink:title=" ">
<polygon fill="white" stroke="#666666" points="419,-30 236,-30 236,0 419,0 419,-30"/>
<text text-anchor="start" x="244" y="-18" font-family="Helvetica,sans-Serif" font-size="10.00">com.teragrep.cfe18.controller</text>
<text text-anchor="middle" x="327.5" y="-7" font-family="Helvetica,sans-Serif" font-size="10.00">Tests.TestApiClient.insertRelpHost</text>
</a>
</g>
</g>
<!-- Node1&#45;&gt;Node3 -->
<g id="edge2_Node000001_Node000003" class="edge">
<title>Node1&#45;&gt;Node3</title>
<g id="a_edge2_Node000001_Node000003"><a xlink:title=" ">
<path fill="none" stroke="#63b8ff" d="M191.05,-29.13C202.45,-27.94 214.13,-26.73 225.62,-25.53"/>
<polygon fill="#63b8ff" stroke="#63b8ff" points="226.07,-29 235.66,-24.48 225.35,-22.04 226.07,-29"/>
</a>
</g>
</g>
</g>
</svg>
