<?xml version="1.0" encoding="UTF-8" standalone="no"?>
<!DOCTYPE svg PUBLIC "-//W3C//DTD SVG 1.1//EN"
 "http://www.w3.org/Graphics/SVG/1.1/DTD/svg11.dtd">
<!-- Generated by graphviz version 2.43.0 (0)
 -->
<!-- Title: com.teragrep.cfe18.controllerTests.TagTriggerControllerTest.testTagTriggerOnCaptureGroup Pages: 1 -->
<svg width="433pt" height="374pt"
 viewBox="0.00 0.00 433.00 374.00" xmlns="http://www.w3.org/2000/svg" xmlns:xlink="http://www.w3.org/1999/xlink">
<g id="graph0" class="graph" transform="scale(1 1) rotate(0) translate(4 370)">
<title>com.teragrep.cfe18.controllerTests.TagTriggerControllerTest.testTagTriggerOnCaptureGroup</title>
<!-- Node1 -->
<g id="Node000001" class="node">
<title>Node1</title>
<g id="a_Node000001"><a xlink:title=" ">
<polygon fill="#999999" stroke="#666666" points="183,-203.5 0,-203.5 0,-162.5 183,-162.5 183,-203.5"/>
<text text-anchor="start" x="8" y="-191.5" font-family="Helvetica,sans-Serif" font-size="10.00">com.teragrep.cfe18.controller</text>
<text text-anchor="start" x="8" y="-180.5" font-family="Helvetica,sans-Serif" font-size="10.00">Tests.TagTriggerControllerTest.test</text>
<text text-anchor="middle" x="91.5" y="-169.5" font-family="Helvetica,sans-Serif" font-size="10.00">TagTriggerOnCaptureGroup</text>
</a>
</g>
</g>
<!-- Node2 -->
<g id="Node000002" class="node">
<title>Node2</title>
<g id="a_Node000002"><a xlink:href="classcom_1_1teragrep_1_1cfe18_1_1controllerTests_1_1TestApiClient.html#a6e84433cb230632ee5480fe3743337bd" target="_top" xlink:title=" ">
<polygon fill="white" stroke="#666666" points="410.5,-366 233.5,-366 233.5,-336 410.5,-336 410.5,-366"/>
<text text-anchor="start" x="241.5" y="-354" font-family="Helvetica,sans-Serif" font-size="10.00">com.teragrep.cfe18.controller</text>
<text text-anchor="middle" x="322" y="-343" font-family="Helvetica,sans-Serif" font-size="10.00">Tests.TestApiClient.insertCapture</text>
</a>
</g>
</g>
<!-- Node1&#45;&gt;Node2 -->
<g id="edge1_Node000001_Node000002" class="edge">
<title>Node1&#45;&gt;Node2</title>
<g id="a_edge1_Node000001_Node000002"><a xlink:title=" ">
<path fill="none" stroke="#63b8ff" d="M104.59,-203.55C124.35,-235.21 166.64,-295.58 219,-327 221.98,-328.79 225.07,-330.44 228.26,-331.97"/>
<polygon fill="#63b8ff" stroke="#63b8ff" points="226.88,-335.19 237.45,-335.96 229.67,-328.77 226.88,-335.19"/>
</a>
</g>
</g>
<!-- Node3 -->
<g id="Node000003" class="node">
<title>Node3</title>
<g id="a_Node000003"><a xlink:href="classcom_1_1teragrep_1_1cfe18_1_1controllerTests_1_1TestApiClient.html#a7e123397ea901ac5105f3d9c5b9c1a85" target="_top" xlink:title=" ">
<polygon fill="white" stroke="#666666" points="425,-318 219,-318 219,-288 425,-288 425,-318"/>
<text text-anchor="start" x="227" y="-306" font-family="Helvetica,sans-Serif" font-size="10.00">com.teragrep.cfe18.controller</text>
<text text-anchor="middle" x="322" y="-295" font-family="Helvetica,sans-Serif" font-size="10.00">Tests.TestApiClient.insertCaptureGroup</text>
</a>
</g>
</g>
<!-- Node1&#45;&gt;Node3 -->
<g id="edge2_Node000001_Node000003" class="edge">
<title>Node1&#45;&gt;Node3</title>
<g id="a_edge2_Node000001_Node000003"><a xlink:title=" ">
<path fill="none" stroke="#63b8ff" d="M113.92,-203.82C137.68,-225.76 178.09,-259.74 219,-279 223.35,-281.05 227.89,-282.93 232.53,-284.66"/>
<polygon fill="#63b8ff" stroke="#63b8ff" points="231.58,-288.03 242.17,-287.99 233.86,-281.41 231.58,-288.03"/>
</a>
</g>
</g>
<!-- Node4 -->
<g id="Node000004" class="node">
<title>Node4</title>
<g id="a_Node000004"><a xlink:href="classcom_1_1teragrep_1_1cfe18_1_1controllerTests_1_1TestApiClient.html#a9a28c3ecb7b02eee1e6c5bbb10893cc3" target="_top" xlink:title=" ">
<polygon fill="white" stroke="#666666" points="403,-270 241,-270 241,-240 403,-240 403,-270"/>
<text text-anchor="start" x="249" y="-258" font-family="Helvetica,sans-Serif" font-size="10.00">com.teragrep.cfe18.controller</text>
<text text-anchor="middle" x="322" y="-247" font-family="Helvetica,sans-Serif" font-size="10.00">Tests.TestApiClient.insertFlow</text>
</a>
</g>
</g>
<!-- Node1&#45;&gt;Node4 -->
<g id="edge3_Node000001_Node000004" class="edge">
<title>Node1&#45;&gt;Node4</title>
<g id="a_edge3_Node000001_Node000004"><a xlink:title=" ">
<path fill="none" stroke="#63b8ff" d="M142.15,-203.57C165.26,-212.7 193.28,-223.13 219,-231 226.34,-233.25 234.03,-235.4 241.76,-237.44"/>
<polygon fill="#63b8ff" stroke="#63b8ff" points="240.98,-240.85 251.54,-239.95 242.72,-234.07 240.98,-240.85"/>
</a>
</g>
</g>
<!-- Node5 -->
<g id="Node000005" class="node">
<title>Node5</title>
<g id="a_Node000005"><a xlink:href="classcom_1_1teragrep_1_1cfe18_1_1controllerTests_1_1TestApiClient.html#a106478900fc54f5e46f54f4b689476d1" target="_top" xlink:title=" ">
<polygon fill="white" stroke="#666666" points="417.5,-222 226.5,-222 226.5,-192 417.5,-192 417.5,-222"/>
<text text-anchor="start" x="234.5" y="-210" font-family="Helvetica,sans-Serif" font-size="10.00">com.teragrep.cfe18.controller</text>
<text text-anchor="middle" x="322" y="-199" font-family="Helvetica,sans-Serif" font-size="10.00">Tests.TestApiClient.insertHostGroup</text>
</a>
</g>
</g>
<!-- Node1&#45;&gt;Node5 -->
<g id="edge4_Node000001_Node000005" class="edge">
<title>Node1&#45;&gt;Node5</title>
<g id="a_edge4_Node000001_Node000005"><a xlink:title=" ">
<path fill="none" stroke="#63b8ff" d="M183.14,-192.52C194.01,-193.66 205.19,-194.84 216.24,-196"/>
<polygon fill="#63b8ff" stroke="#63b8ff" points="216.04,-199.49 226.35,-197.06 216.77,-192.53 216.04,-199.49"/>
</a>
</g>
</g>
<!-- Node6 -->
<g id="Node000006" class="node">
<title>Node6</title>
<g id="a_Node000006"><a xlink:href="classcom_1_1teragrep_1_1cfe18_1_1controllerTests_1_1TestApiClient.html#ae0cb37b5c34507f5e116ac9c9b2a4a3c" target="_top" xlink:title=" ">
<polygon fill="white" stroke="#666666" points="422.5,-174 221.5,-174 221.5,-144 422.5,-144 422.5,-174"/>
<text text-anchor="start" x="229.5" y="-162" font-family="Helvetica,sans-Serif" font-size="10.00">com.teragrep.cfe18.controller</text>
<text text-anchor="middle" x="322" y="-151" font-family="Helvetica,sans-Serif" font-size="10.00">Tests.TestApiClient.insertHostToGroup</text>
</a>
</g>
</g>
<!-- Node1&#45;&gt;Node6 -->
<g id="edge5_Node000001_Node000006" class="edge">
<title>Node1&#45;&gt;Node6</title>
<g id="a_edge5_Node000001_Node000006"><a xlink:title=" ">
<path fill="none" stroke="#63b8ff" d="M183.14,-173.48C192.38,-172.51 201.84,-171.52 211.25,-170.53"/>
<polygon fill="#63b8ff" stroke="#63b8ff" points="211.86,-173.98 221.44,-169.46 211.13,-167.02 211.86,-173.98"/>
</a>
</g>
</g>
<!-- Node7 -->
<g id="Node000007" class="node">
<title>Node7</title>
<g id="a_Node000007"><a xlink:href="classcom_1_1teragrep_1_1cfe18_1_1controllerTests_1_1TestApiClient.html#abf26572fa5279129438f6f959b396db9" target="_top" xlink:title=" ">
<polygon fill="white" stroke="#666666" points="410,-126 234,-126 234,-96 410,-96 410,-126"/>
<text text-anchor="start" x="242" y="-114" font-family="Helvetica,sans-Serif" font-size="10.00">com.teragrep.cfe18.controller</text>
<text text-anchor="middle" x="322" y="-103" font-family="Helvetica,sans-Serif" font-size="10.00">Tests.TestApiClient.insertLinkage</text>
</a>
</g>
</g>
<!-- Node1&#45;&gt;Node7 -->
<g id="edge6_Node000001_Node000007" class="edge">
<title>Node1&#45;&gt;Node7</title>
<g id="a_edge6_Node000001_Node000007"><a xlink:title=" ">
<path fill="none" stroke="#63b8ff" d="M142.15,-162.43C165.26,-153.3 193.28,-142.87 219,-135 226.34,-132.75 234.03,-130.6 241.76,-128.56"/>
<polygon fill="#63b8ff" stroke="#63b8ff" points="242.72,-131.93 251.54,-126.05 240.98,-125.15 242.72,-131.93"/>
</a>
</g>
</g>
<!-- Node8 -->
<g id="Node000008" class="node">
<title>Node8</title>
<g id="a_Node000008"><a xlink:href="classcom_1_1teragrep_1_1cfe18_1_1controllerTests_1_1TestApiClient.html#a423b9ca7d8d2865e7ce9742ba1ca3922" target="_top" xlink:title=" ">
<polygon fill="white" stroke="#666666" points="413.5,-78 230.5,-78 230.5,-48 413.5,-48 413.5,-78"/>
<text text-anchor="start" x="238.5" y="-66" font-family="Helvetica,sans-Serif" font-size="10.00">com.teragrep.cfe18.controller</text>
<text text-anchor="middle" x="322" y="-55" font-family="Helvetica,sans-Serif" font-size="10.00">Tests.TestApiClient.insertRelpHost</text>
</a>
</g>
</g>
<!-- Node1&#45;&gt;Node8 -->
<g id="edge7_Node000001_Node000008" class="edge">
<title>Node1&#45;&gt;Node8</title>
<g id="a_edge7_Node000001_Node000008"><a xlink:title=" ">
<path fill="none" stroke="#63b8ff" d="M113.92,-162.18C137.68,-140.24 178.09,-106.26 219,-87 223.35,-84.95 227.89,-83.07 232.53,-81.34"/>
<polygon fill="#63b8ff" stroke="#63b8ff" points="233.86,-84.59 242.17,-78.01 231.58,-77.97 233.86,-84.59"/>
</a>
</g>
</g>
<!-- Node9 -->
<g id="Node000009" class="node">
<title>Node9</title>
<g id="a_Node000009"><a xlink:href="classcom_1_1teragrep_1_1cfe18_1_1controllerTests_1_1TestApiClient.html#af143a3c89fe0d24ab6a99904d295f9a9" target="_top" xlink:title=" ">
<polygon fill="white" stroke="#666666" points="402.5,-30 241.5,-30 241.5,0 402.5,0 402.5,-30"/>
<text text-anchor="start" x="249.5" y="-18" font-family="Helvetica,sans-Serif" font-size="10.00">com.teragrep.cfe18.controller</text>
<text text-anchor="middle" x="322" y="-7" font-family="Helvetica,sans-Serif" font-size="10.00">Tests.TestApiClient.insertSink</text>
</a>
</g>
</g>
<!-- Node1&#45;&gt;Node9 -->
<g id="edge8_Node000001_Node000009" class="edge">
<title>Node1&#45;&gt;Node9</title>
<g id="a_edge8_Node000001_Node000009"><a xlink:title=" ">
<path fill="none" stroke="#63b8ff" d="M104.59,-162.45C124.35,-130.79 166.64,-70.42 219,-39 223.12,-36.53 227.48,-34.31 231.98,-32.32"/>
<polygon fill="#63b8ff" stroke="#63b8ff" points="233.41,-35.52 241.39,-28.55 230.8,-29.02 233.41,-35.52"/>
</a>
</g>
</g>
</g>
</svg>
