<?xml version="1.0" encoding="UTF-8" standalone="no"?>
<!DOCTYPE svg PUBLIC "-//W3C//DTD SVG 1.1//EN"
 "http://www.w3.org/Graphics/SVG/1.1/DTD/svg11.dtd">
<!-- Generated by graphviz version 2.43.0 (0)
 -->
<!-- Title: com.teragrep.cfe18.controllerTests.HubControllerTest.testData Pages: 1 -->
<svg width="399pt" height="86pt"
 viewBox="0.00 0.00 399.00 86.00" xmlns="http://www.w3.org/2000/svg" xmlns:xlink="http://www.w3.org/1999/xlink">
<g id="graph0" class="graph" transform="scale(1 1) rotate(0) translate(4 82)">
<title>com.teragrep.cfe18.controllerTests.HubControllerTest.testData</title>
<!-- Node1 -->
<g id="Node000001" class="node">
<title>Node1</title>
<g id="a_Node000001"><a xlink:title=" ">
<polygon fill="#999999" stroke="#666666" points="176,-54 0,-54 0,-24 176,-24 176,-54"/>
<text text-anchor="start" x="8" y="-42" font-family="Helvetica,sans-Serif" font-size="10.00">com.teragrep.cfe18.controller</text>
<text text-anchor="middle" x="88" y="-31" font-family="Helvetica,sans-Serif" font-size="10.00">Tests.HubControllerTest.testData</text>
</a>
</g>
</g>
<!-- Node2 -->
<g id="Node000002" class="node">
<title>Node2</title>
<g id="a_Node000002"><a xlink:href="classcom_1_1teragrep_1_1cfe18_1_1controllerTests_1_1TestApiClient.html#a88f2628dde191cc91b55a5e817ea6420" target="_top" xlink:title=" ">
<polygon fill="white" stroke="#666666" points="391,-78 212,-78 212,-48 391,-48 391,-78"/>
<text text-anchor="start" x="220" y="-66" font-family="Helvetica,sans-Serif" font-size="10.00">com.teragrep.cfe18.controller</text>
<text text-anchor="middle" x="301.5" y="-55" font-family="Helvetica,sans-Serif" font-size="10.00">Tests.TestApiClient.insertHostFile</text>
</a>
</g>
</g>
<!-- Node1&#45;&gt;Node2 -->
<g id="edge1_Node000001_Node000002" class="edge">
<title>Node1&#45;&gt;Node2</title>
<g id="a_edge1_Node000001_Node000002"><a xlink:title=" ">
<path fill="none" stroke="#63b8ff" d="M176.25,-48.9C184.67,-49.86 193.26,-50.83 201.78,-51.8"/>
<polygon fill="#63b8ff" stroke="#63b8ff" points="201.41,-55.28 211.75,-52.93 202.2,-48.32 201.41,-55.28"/>
</a>
</g>
</g>
<!-- Node3 -->
<g id="Node000003" class="node">
<title>Node3</title>
<g id="a_Node000003"><a xlink:href="classcom_1_1teragrep_1_1cfe18_1_1controllerTests_1_1TestApiClient.html#abdb64aea0c101be4794dc4aa640c8d6f" target="_top" xlink:title=" ">
<polygon fill="white" stroke="#666666" points="382,-30 221,-30 221,0 382,0 382,-30"/>
<text text-anchor="start" x="229" y="-18" font-family="Helvetica,sans-Serif" font-size="10.00">com.teragrep.cfe18.controller</text>
<text text-anchor="middle" x="301.5" y="-7" font-family="Helvetica,sans-Serif" font-size="10.00">Tests.TestApiClient.insertHub</text>
</a>
</g>
</g>
<!-- Node1&#45;&gt;Node3 -->
<g id="edge2_Node000001_Node000003" class="edge">
<title>Node1&#45;&gt;Node3</title>
<g id="a_edge2_Node000001_Node000003"><a xlink:title=" ">
<path fill="none" stroke="#63b8ff" d="M176.25,-29.1C187.69,-27.8 199.43,-26.47 210.91,-25.17"/>
<polygon fill="#63b8ff" stroke="#63b8ff" points="211.37,-28.64 220.91,-24.03 210.58,-21.68 211.37,-28.64"/>
</a>
</g>
</g>
</g>
</svg>
