<?xml version="1.0" encoding="UTF-8" standalone="no"?>
<!DOCTYPE svg PUBLIC "-//W3C//DTD SVG 1.1//EN"
 "http://www.w3.org/Graphics/SVG/1.1/DTD/svg11.dtd">
<!-- Generated by graphviz version 2.43.0 (0)
 -->
<!-- Title: com.teragrep.cfe18.controllerTests.TestApiClient.insertRelpHost Pages: 1 -->
<svg width="410pt" height="108pt"
 viewBox="0.00 0.00 410.00 108.00" xmlns="http://www.w3.org/2000/svg" xmlns:xlink="http://www.w3.org/1999/xlink">
<g id="graph0" class="graph" transform="scale(1 1) rotate(0) translate(4 104)">
<title>com.teragrep.cfe18.controllerTests.TestApiClient.insertRelpHost</title>
<!-- Node1 -->
<g id="Node000001" class="node">
<title>Node1</title>
<g id="a_Node000001"><a xlink:title=" ">
<polygon fill="#999999" stroke="#666666" points="402,-64.5 219,-64.5 219,-34.5 402,-34.5 402,-64.5"/>
<text text-anchor="start" x="227" y="-52.5" font-family="Helvetica,sans-Serif" font-size="10.00">com.teragrep.cfe18.controller</text>
<text text-anchor="middle" x="310.5" y="-41.5" font-family="Helvetica,sans-Serif" font-size="10.00">Tests.TestApiClient.insertRelpHost</text>
</a>
</g>
</g>
<!-- Node2 -->
<g id="Node000002" class="node">
<title>Node2</title>
<g id="a_Node000002"><a xlink:href="classcom_1_1teragrep_1_1cfe18_1_1controllerTests_1_1HostMetaControllerTest.html#a5e7f6f9ee73c1ae8907afa9069f89687" target="_top" xlink:title=" ">
<polygon fill="white" stroke="#666666" points="182,-100 1,-100 1,-59 182,-59 182,-100"/>
<text text-anchor="start" x="9" y="-88" font-family="Helvetica,sans-Serif" font-size="10.00">com.teragrep.cfe18.controller</text>
<text text-anchor="start" x="9" y="-77" font-family="Helvetica,sans-Serif" font-size="10.00">Tests.HostMetaControllerTest.test</text>
<text text-anchor="middle" x="91.5" y="-66" font-family="Helvetica,sans-Serif" font-size="10.00">AddHostMeta</text>
</a>
</g>
</g>
<!-- Node1&#45;&gt;Node2 -->
<g id="edge1_Node000001_Node000002" class="edge">
<title>Node1&#45;&gt;Node2</title>
<g id="a_edge1_Node000001_Node000002"><a xlink:title=" ">
<path fill="none" stroke="#63b8ff" d="M208.77,-63.43C199.9,-64.65 190.97,-65.89 182.21,-67.1"/>
<polygon fill="#63b8ff" stroke="#63b8ff" points="209.3,-66.89 218.73,-62.05 208.34,-59.95 209.3,-66.89"/>
</a>
</g>
</g>
<!-- Node3 -->
<g id="Node000003" class="node">
<title>Node3</title>
<g id="a_Node000003"><a xlink:href="classcom_1_1teragrep_1_1cfe18_1_1controllerTests_1_1TagTriggerControllerTest.html#a4de673f8ee99ef5accbf0fdb3cfcacb5" target="_top" xlink:title=" ">
<polygon fill="white" stroke="#666666" points="183,-41 0,-41 0,0 183,0 183,-41"/>
<text text-anchor="start" x="8" y="-29" font-family="Helvetica,sans-Serif" font-size="10.00">com.teragrep.cfe18.controller</text>
<text text-anchor="start" x="8" y="-18" font-family="Helvetica,sans-Serif" font-size="10.00">Tests.TagTriggerControllerTest.test</text>
<text text-anchor="middle" x="91.5" y="-7" font-family="Helvetica,sans-Serif" font-size="10.00">TagTriggerOnError</text>
</a>
</g>
</g>
<!-- Node1&#45;&gt;Node3 -->
<g id="edge2_Node000001_Node000003" class="edge">
<title>Node1&#45;&gt;Node3</title>
<g id="a_edge2_Node000001_Node000003"><a xlink:title=" ">
<path fill="none" stroke="#63b8ff" d="M208.78,-36.04C200.26,-34.9 191.69,-33.76 183.26,-32.63"/>
<polygon fill="#63b8ff" stroke="#63b8ff" points="208.35,-39.51 218.73,-37.37 209.28,-32.58 208.35,-39.51"/>
</a>
</g>
</g>
</g>
</svg>
