<?xml version="1.0" encoding="UTF-8" standalone="no"?><svg xmlns="http://www.w3.org/2000/svg" xmlns:xlink="http://www.w3.org/1999/xlink" contentScriptType="application/ecmascript" contentStyleType="text/css" height="290px" preserveAspectRatio="none" style="width:376px;height:290px;" version="1.1" viewBox="0 0 376 290" width="376px" zoomAndPan="magnify"><defs><filter height="300%" id="f1l5o9n8xrwy4s" width="300%" x="-1" y="-1"><feGaussianBlur result="blurOut" stdDeviation="2.0"/><feColorMatrix in="blurOut" result="blurOut2" type="matrix" values="0 0 0 0 0 0 0 0 0 0 0 0 0 0 0 0 0 0 .4 0"/><feOffset dx="4.0" dy="4.0" in="blurOut2" result="blurOut3"/><feBlend in="SourceGraphic" in2="blurOut3" mode="normal"/></filter></defs><g><!--MD5=[d4c48abb184264016f85e3996eabaeb7]
class CaptureFileController--><rect fill="#FEFECE" filter="url(#f1l5o9n8xrwy4s)" height="99.2188" id="CaptureFileController" style="stroke: #A80036; stroke-width: 1.5;" width="164" x="6" y="31.5"/><ellipse cx="21" cy="47.5" fill="#ADD1B2" rx="11" ry="11" style="stroke: #A80036; stroke-width: 1.0;"/><path d="M23.9688,53.1406 Q23.3906,53.4375 22.75,53.5781 Q22.1094,53.7344 21.4063,53.7344 Q18.9063,53.7344 17.5781,52.0938 Q16.2656,50.4375 16.2656,47.3125 Q16.2656,44.1875 17.5781,42.5313 Q18.9063,40.875 21.4063,40.875 Q22.1094,40.875 22.75,41.0313 Q23.4063,41.1875 23.9688,41.4844 L23.9688,44.2031 Q23.3438,43.625 22.75,43.3594 Q22.1563,43.0781 21.5313,43.0781 Q20.1875,43.0781 19.5,44.1563 Q18.8125,45.2188 18.8125,47.3125 Q18.8125,49.4063 19.5,50.4844 Q20.1875,51.5469 21.5313,51.5469 Q22.1563,51.5469 22.75,51.2813 Q23.3438,51 23.9688,50.4219 L23.9688,53.1406 Z "/><text fill="#000000" font-family="sans-serif" font-size="12" lengthAdjust="spacingAndGlyphs" textLength="132" x="35" y="51.6543">CaptureFileController</text><line style="stroke: #A80036; stroke-width: 1.5;" x1="7" x2="169" y1="63.5" y2="63.5"/><line style="stroke: #A80036; stroke-width: 1.5;" x1="7" x2="169" y1="71.5" y2="71.5"/><text fill="#000000" font-family="sans-serif" font-size="11" lengthAdjust="spacingAndGlyphs" textLength="44" x="12" y="85.7104">create()</text><text fill="#000000" font-family="sans-serif" font-size="11" lengthAdjust="spacingAndGlyphs" textLength="26" x="12" y="98.5151">get()</text><text fill="#000000" font-family="sans-serif" font-size="11" lengthAdjust="spacingAndGlyphs" textLength="39" x="12" y="111.3198">getAll()</text><text fill="#000000" font-family="sans-serif" font-size="11" lengthAdjust="spacingAndGlyphs" textLength="43" x="12" y="124.1245">delete()</text><!--MD5=[7c7d8a0858a4a1fe19c53dd022fe465b]
class CaptureFile--><rect fill="#FEFECE" filter="url(#f1l5o9n8xrwy4s)" height="48" id="CaptureFile" style="stroke: #A80036; stroke-width: 1.5;" width="103" x="36.5" y="231"/><ellipse cx="51.5" cy="247" fill="#ADD1B2" rx="11" ry="11" style="stroke: #A80036; stroke-width: 1.0;"/><path d="M54.4688,252.6406 Q53.8906,252.9375 53.25,253.0781 Q52.6094,253.2344 51.9063,253.2344 Q49.4063,253.2344 48.0781,251.5938 Q46.7656,249.9375 46.7656,246.8125 Q46.7656,243.6875 48.0781,242.0313 Q49.4063,240.375 51.9063,240.375 Q52.6094,240.375 53.25,240.5313 Q53.9063,240.6875 54.4688,240.9844 L54.4688,243.7031 Q53.8438,243.125 53.25,242.8594 Q52.6563,242.5781 52.0313,242.5781 Q50.6875,242.5781 50,243.6563 Q49.3125,244.7188 49.3125,246.8125 Q49.3125,248.9063 50,249.9844 Q50.6875,251.0469 52.0313,251.0469 Q52.6563,251.0469 53.25,250.7813 Q53.8438,250.5 54.4688,249.9219 L54.4688,252.6406 Z "/><text fill="#000000" font-family="sans-serif" font-size="12" lengthAdjust="spacingAndGlyphs" textLength="71" x="65.5" y="251.1543">CaptureFile</text><line style="stroke: #A80036; stroke-width: 1.5;" x1="37.5" x2="138.5" y1="263" y2="263"/><line style="stroke: #A80036; stroke-width: 1.5;" x1="37.5" x2="138.5" y1="271" y2="271"/><path d="M205.5,8 L205.5,77 L170.34,81 L205.5,85 L205.5,154.1953 A0,0 0 0 0 205.5,154.1953 L364.5,154.1953 A0,0 0 0 0 364.5,154.1953 L364.5,18 L354.5,8 L205.5,8 A0,0 0 0 0 205.5,8 " fill="#FBFB77" filter="url(#f1l5o9n8xrwy4s)" style="stroke: #A80036; stroke-width: 1.0;"/><path d="M354.5,8 L354.5,18 L364.5,18 L354.5,8 " fill="#FBFB77" style="stroke: #A80036; stroke-width: 1.0;"/><text fill="#000000" font-family="sans-serif" font-size="13" lengthAdjust="spacingAndGlyphs" textLength="101" x="211.5" y="25.0669">Responsibilities:</text><text fill="#000000" font-family="sans-serif" font-size="13" lengthAdjust="spacingAndGlyphs" textLength="128" x="215.5" y="40.1997">- Create CaptureFile</text><text fill="#000000" font-family="sans-serif" font-size="13" lengthAdjust="spacingAndGlyphs" textLength="108" x="215.5" y="55.3325">- Get CaptureFile</text><text fill="#000000" font-family="sans-serif" font-size="13" lengthAdjust="spacingAndGlyphs" textLength="134" x="215.5" y="70.4653">- Get All CaptureFiles</text><text fill="#000000" font-family="sans-serif" font-size="13" lengthAdjust="spacingAndGlyphs" textLength="127" x="215.5" y="85.5981">- Delete CaptureFile</text><text fill="#000000" font-family="sans-serif" font-size="13" lengthAdjust="spacingAndGlyphs" textLength="0" x="215.5" y="100.731"/><text fill="#000000" font-family="sans-serif" font-size="13" lengthAdjust="spacingAndGlyphs" textLength="89" x="211.5" y="115.8638">Collaborators:</text><text fill="#000000" font-family="sans-serif" font-size="13" lengthAdjust="spacingAndGlyphs" textLength="81" x="211.5" y="130.9966">- CaptureFile</text><text fill="#000000" font-family="sans-serif" font-size="13" lengthAdjust="spacingAndGlyphs" textLength="0" x="215.5" y="146.1294"/><!--MD5=[913b4a221df52c02522eb6916cdf623f]
link CaptureFileController to CaptureFile--><path d="M88,130.83 C88,161.43 88,199.8 88,225.51 " fill="none" id="CaptureFileController-&gt;CaptureFile" style="stroke: #A80036; stroke-width: 1.0;"/><polygon fill="#A80036" points="88,230.8,92,221.8,88,225.8,84,221.8,88,230.8" style="stroke: #A80036; stroke-width: 1.0;"/><text fill="#000000" font-family="sans-serif" font-size="13" lengthAdjust="spacingAndGlyphs" textLength="46" x="89" y="197.0669">Utilizes</text><!--MD5=[a8501c547d1f3222a242c3fb559e7abf]
@startuml inline_umlgraph_1.svg
class CaptureFileController {
 create()
 get()
 getAll()
 delete()
}

CaptureFileController - -> CaptureFile : Utilizes

note right of CaptureFileController
Responsibilities:
 - Create CaptureFile
 - Get CaptureFile
 - Get All CaptureFiles
 - Delete CaptureFile

Collaborators:
- CaptureFile

end note
@enduml

PlantUML version 1.2020.02(Sun Mar 01 10:22:07 UTC 2020)
(GPL source distribution)
Java Runtime: OpenJDK Runtime Environment
JVM: OpenJDK 64-Bit Server VM
Java Version: 1.8.0_292-b10
Operating System: Linux
Default Encoding: UTF-8
Language: en
Country: null
--></g></svg>