<?xml version="1.0" encoding="UTF-8" standalone="no"?><svg xmlns="http://www.w3.org/2000/svg" xmlns:xlink="http://www.w3.org/1999/xlink" contentScriptType="application/ecmascript" contentStyleType="text/css" height="260px" preserveAspectRatio="none" style="width:371px;height:260px;" version="1.1" viewBox="0 0 371 260" width="371px" zoomAndPan="magnify"><defs><filter height="300%" id="f16gjfvcvnmvsd" width="300%" x="-1" y="-1"><feGaussianBlur result="blurOut" stdDeviation="2.0"/><feColorMatrix in="blurOut" result="blurOut2" type="matrix" values="0 0 0 0 0 0 0 0 0 0 0 0 0 0 0 0 0 0 .4 0"/><feOffset dx="4.0" dy="4.0" in="blurOut2" result="blurOut3"/><feBlend in="SourceGraphic" in2="blurOut3" mode="normal"/></filter></defs><g><!--MD5=[12f72c17ee61fbd7562674b3e87f7dc3]
class FlowController--><rect fill="#FEFECE" filter="url(#f16gjfvcvnmvsd)" height="86.4141" id="FlowController" style="stroke: #A80036; stroke-width: 1.5;" width="120" x="6" y="23"/><ellipse cx="21" cy="39" fill="#ADD1B2" rx="11" ry="11" style="stroke: #A80036; stroke-width: 1.0;"/><path d="M23.9688,44.6406 Q23.3906,44.9375 22.75,45.0781 Q22.1094,45.2344 21.4063,45.2344 Q18.9063,45.2344 17.5781,43.5938 Q16.2656,41.9375 16.2656,38.8125 Q16.2656,35.6875 17.5781,34.0313 Q18.9063,32.375 21.4063,32.375 Q22.1094,32.375 22.75,32.5313 Q23.4063,32.6875 23.9688,32.9844 L23.9688,35.7031 Q23.3438,35.125 22.75,34.8594 Q22.1563,34.5781 21.5313,34.5781 Q20.1875,34.5781 19.5,35.6563 Q18.8125,36.7188 18.8125,38.8125 Q18.8125,40.9063 19.5,41.9844 Q20.1875,43.0469 21.5313,43.0469 Q22.1563,43.0469 22.75,42.7813 Q23.3438,42.5 23.9688,41.9219 L23.9688,44.6406 Z "/><text fill="#000000" font-family="sans-serif" font-size="12" lengthAdjust="spacingAndGlyphs" textLength="88" x="35" y="43.1543">FlowController</text><line style="stroke: #A80036; stroke-width: 1.5;" x1="7" x2="125" y1="55" y2="55"/><line style="stroke: #A80036; stroke-width: 1.5;" x1="7" x2="125" y1="63" y2="63"/><text fill="#000000" font-family="sans-serif" font-size="11" lengthAdjust="spacingAndGlyphs" textLength="44" x="12" y="77.2104">create()</text><text fill="#000000" font-family="sans-serif" font-size="11" lengthAdjust="spacingAndGlyphs" textLength="39" x="12" y="90.0151">getAll()</text><text fill="#000000" font-family="sans-serif" font-size="11" lengthAdjust="spacingAndGlyphs" textLength="43" x="12" y="102.8198">delete()</text><!--MD5=[49843e001dfdeb79de7734326ddc8639]
class Flow--><rect fill="#FEFECE" filter="url(#f16gjfvcvnmvsd)" height="48" id="Flow" style="stroke: #A80036; stroke-width: 1.5;" width="59" x="36.5" y="201"/><ellipse cx="51.5" cy="217" fill="#ADD1B2" rx="11" ry="11" style="stroke: #A80036; stroke-width: 1.0;"/><path d="M54.4688,222.6406 Q53.8906,222.9375 53.25,223.0781 Q52.6094,223.2344 51.9063,223.2344 Q49.4063,223.2344 48.0781,221.5938 Q46.7656,219.9375 46.7656,216.8125 Q46.7656,213.6875 48.0781,212.0313 Q49.4063,210.375 51.9063,210.375 Q52.6094,210.375 53.25,210.5313 Q53.9063,210.6875 54.4688,210.9844 L54.4688,213.7031 Q53.8438,213.125 53.25,212.8594 Q52.6563,212.5781 52.0313,212.5781 Q50.6875,212.5781 50,213.6563 Q49.3125,214.7188 49.3125,216.8125 Q49.3125,218.9063 50,219.9844 Q50.6875,221.0469 52.0313,221.0469 Q52.6563,221.0469 53.25,220.7813 Q53.8438,220.5 54.4688,219.9219 L54.4688,222.6406 Z "/><text fill="#000000" font-family="sans-serif" font-size="12" lengthAdjust="spacingAndGlyphs" textLength="27" x="65.5" y="221.1543">Flow</text><line style="stroke: #A80036; stroke-width: 1.5;" x1="37.5" x2="94.5" y1="233" y2="233"/><line style="stroke: #A80036; stroke-width: 1.5;" x1="37.5" x2="94.5" y1="241" y2="241"/><path d="M161,8 L161,62 L126.25,66 L161,70 L161,123.9297 A0,0 0 0 0 161,123.9297 L359,123.9297 A0,0 0 0 0 359,123.9297 L359,18 L349,8 L161,8 A0,0 0 0 0 161,8 " fill="#FBFB77" filter="url(#f16gjfvcvnmvsd)" style="stroke: #A80036; stroke-width: 1.0;"/><path d="M349,8 L349,18 L359,18 L349,8 " fill="#FBFB77" style="stroke: #A80036; stroke-width: 1.0;"/><text fill="#000000" font-family="sans-serif" font-size="13" lengthAdjust="spacingAndGlyphs" textLength="101" x="167" y="25.0669">Responsibilities:</text><text fill="#000000" font-family="sans-serif" font-size="13" lengthAdjust="spacingAndGlyphs" textLength="177" x="167" y="40.1997">- Can retrieve multiple flows</text><text fill="#000000" font-family="sans-serif" font-size="13" lengthAdjust="spacingAndGlyphs" textLength="139" x="167" y="55.3325">- Can create new Flow</text><text fill="#000000" font-family="sans-serif" font-size="13" lengthAdjust="spacingAndGlyphs" textLength="134" x="167" y="70.4653">- Can delete one flow</text><text fill="#000000" font-family="sans-serif" font-size="13" lengthAdjust="spacingAndGlyphs" textLength="0" x="171" y="85.5981"/><text fill="#000000" font-family="sans-serif" font-size="13" lengthAdjust="spacingAndGlyphs" textLength="89" x="171" y="100.731">Collaborators:</text><text fill="#000000" font-family="sans-serif" font-size="13" lengthAdjust="spacingAndGlyphs" textLength="36" x="171" y="115.8638">- Flow</text><!--MD5=[c2bbf6d9f3cad0eec90e79f96ca7aadb]
link FlowController to Flow--><path d="M66,109.07 C66,136.43 66,171.38 66,195.51 " fill="none" id="FlowController-&gt;Flow" style="stroke: #A80036; stroke-width: 1.0;"/><polygon fill="#A80036" points="66,200.8,70,191.8,66,195.8,62,191.8,66,200.8" style="stroke: #A80036; stroke-width: 1.0;"/><text fill="#000000" font-family="sans-serif" font-size="13" lengthAdjust="spacingAndGlyphs" textLength="64" x="67" y="167.0669">Flowyness</text><!--MD5=[b9430d33c8fcdf0f7e57438d55c78581]
@startuml inline_umlgraph_1.svg
class FlowController {
    create()
    getAll()
    delete()
}

FlowController - -> Flow : Flowyness

note right of FlowController
Responsibilities:
- Can retrieve multiple flows
- Can create new Flow
- Can delete one flow

 Collaborators:
 - Flow
end note
@enduml

PlantUML version 1.2020.02(Sun Mar 01 10:22:07 UTC 2020)
(GPL source distribution)
Java Runtime: OpenJDK Runtime Environment
JVM: OpenJDK 64-Bit Server VM
Java Version: 1.8.0_292-b10
Operating System: Linux
Default Encoding: UTF-8
Language: en
Country: null
--></g></svg>