<?xml version="1.0" encoding="UTF-8" standalone="no"?><svg xmlns="http://www.w3.org/2000/svg" xmlns:xlink="http://www.w3.org/1999/xlink" contentScriptType="application/ecmascript" contentStyleType="text/css" height="399px" preserveAspectRatio="none" style="width:433px;height:399px;" version="1.1" viewBox="0 0 433 399" width="433px" zoomAndPan="magnify"><defs><filter height="300%" id="fw0l5o35qeqkd" width="300%" x="-1" y="-1"><feGaussianBlur result="blurOut" stdDeviation="2.0"/><feColorMatrix in="blurOut" result="blurOut2" type="matrix" values="0 0 0 0 0 0 0 0 0 0 0 0 0 0 0 0 0 0 .4 0"/><feOffset dx="4.0" dy="4.0" in="blurOut2" result="blurOut3"/><feBlend in="SourceGraphic" in2="blurOut3" mode="normal"/></filter></defs><g><!--MD5=[7c7d8a0858a4a1fe19c53dd022fe465b]
class CaptureFile--><rect fill="#FEFECE" filter="url(#fw0l5o35qeqkd)" height="380.9219" id="CaptureFile" style="stroke: #A80036; stroke-width: 1.5;" width="171" x="6" y="8"/><ellipse cx="51.75" cy="24" fill="#ADD1B2" rx="11" ry="11" style="stroke: #A80036; stroke-width: 1.0;"/><path d="M54.7188,29.6406 Q54.1406,29.9375 53.5,30.0781 Q52.8594,30.2344 52.1563,30.2344 Q49.6563,30.2344 48.3281,28.5938 Q47.0156,26.9375 47.0156,23.8125 Q47.0156,20.6875 48.3281,19.0313 Q49.6563,17.375 52.1563,17.375 Q52.8594,17.375 53.5,17.5313 Q54.1563,17.6875 54.7188,17.9844 L54.7188,20.7031 Q54.0938,20.125 53.5,19.8594 Q52.9063,19.5781 52.2813,19.5781 Q50.9375,19.5781 50.25,20.6563 Q49.5625,21.7188 49.5625,23.8125 Q49.5625,25.9063 50.25,26.9844 Q50.9375,28.0469 52.2813,28.0469 Q52.9063,28.0469 53.5,27.7813 Q54.0938,27.5 54.7188,26.9219 L54.7188,29.6406 Z "/><text fill="#000000" font-family="sans-serif" font-size="12" lengthAdjust="spacingAndGlyphs" textLength="71" x="72.25" y="28.1543">CaptureFile</text><line style="stroke: #A80036; stroke-width: 1.5;" x1="7" x2="176" y1="40" y2="40"/><line style="stroke: #A80036; stroke-width: 1.5;" x1="7" x2="176" y1="48" y2="48"/><rect fill="#F24D5C" height="6" style="stroke: #C82930; stroke-width: 1.0;" width="6" x="14" y="56"/><text fill="#000000" font-family="sans-serif" font-size="11" lengthAdjust="spacingAndGlyphs" textLength="36" x="26" y="62.2104">getId()</text><rect fill="#F24D5C" height="6" style="stroke: #C82930; stroke-width: 1.0;" width="6" x="14" y="68.8047"/><text fill="#000000" font-family="sans-serif" font-size="11" lengthAdjust="spacingAndGlyphs" textLength="36" x="26" y="75.0151">setId()</text><rect fill="#F24D5C" height="6" style="stroke: #C82930; stroke-width: 1.0;" width="6" x="14" y="81.6094"/><text fill="#000000" font-family="sans-serif" font-size="11" lengthAdjust="spacingAndGlyphs" textLength="87" x="26" y="87.8198">getApplication()</text><rect fill="#F24D5C" height="6" style="stroke: #C82930; stroke-width: 1.0;" width="6" x="14" y="94.4141"/><text fill="#000000" font-family="sans-serif" font-size="11" lengthAdjust="spacingAndGlyphs" textLength="87" x="26" y="100.6245">setApplication()</text><rect fill="#F24D5C" height="6" style="stroke: #C82930; stroke-width: 1.0;" width="6" x="14" y="107.2188"/><text fill="#000000" font-family="sans-serif" font-size="11" lengthAdjust="spacingAndGlyphs" textLength="77" x="26" y="113.4292">getCategory()</text><rect fill="#F24D5C" height="6" style="stroke: #C82930; stroke-width: 1.0;" width="6" x="14" y="120.0234"/><text fill="#000000" font-family="sans-serif" font-size="11" lengthAdjust="spacingAndGlyphs" textLength="77" x="26" y="126.2339">setCategory()</text><rect fill="#F24D5C" height="6" style="stroke: #C82930; stroke-width: 1.0;" width="6" x="14" y="132.8281"/><text fill="#000000" font-family="sans-serif" font-size="11" lengthAdjust="spacingAndGlyphs" textLength="66" x="26" y="139.0386">getSource()</text><rect fill="#F24D5C" height="6" style="stroke: #C82930; stroke-width: 1.0;" width="6" x="14" y="145.6328"/><text fill="#000000" font-family="sans-serif" font-size="11" lengthAdjust="spacingAndGlyphs" textLength="66" x="26" y="151.8433">setSource()</text><rect fill="#F24D5C" height="6" style="stroke: #C82930; stroke-width: 1.0;" width="6" x="14" y="158.4375"/><text fill="#000000" font-family="sans-serif" font-size="11" lengthAdjust="spacingAndGlyphs" textLength="56" x="26" y="164.6479">getIndex()</text><rect fill="#F24D5C" height="6" style="stroke: #C82930; stroke-width: 1.0;" width="6" x="14" y="171.2422"/><text fill="#000000" font-family="sans-serif" font-size="11" lengthAdjust="spacingAndGlyphs" textLength="56" x="26" y="177.4526">setIndex()</text><rect fill="#F24D5C" height="6" style="stroke: #C82930; stroke-width: 1.0;" width="6" x="14" y="184.0469"/><text fill="#000000" font-family="sans-serif" font-size="11" lengthAdjust="spacingAndGlyphs" textLength="107" x="26" y="190.2573">getRetentionTime()</text><rect fill="#F24D5C" height="6" style="stroke: #C82930; stroke-width: 1.0;" width="6" x="14" y="196.8516"/><text fill="#000000" font-family="sans-serif" font-size="11" lengthAdjust="spacingAndGlyphs" textLength="107" x="26" y="203.062">setRetentionTime()</text><rect fill="#F24D5C" height="6" style="stroke: #C82930; stroke-width: 1.0;" width="6" x="14" y="209.6563"/><text fill="#000000" font-family="sans-serif" font-size="11" lengthAdjust="spacingAndGlyphs" textLength="47" x="26" y="215.8667">getTag()</text><rect fill="#F24D5C" height="6" style="stroke: #C82930; stroke-width: 1.0;" width="6" x="14" y="222.4609"/><text fill="#000000" font-family="sans-serif" font-size="11" lengthAdjust="spacingAndGlyphs" textLength="47" x="26" y="228.6714">setTag()</text><rect fill="#F24D5C" height="6" style="stroke: #C82930; stroke-width: 1.0;" width="6" x="14" y="235.2656"/><text fill="#000000" font-family="sans-serif" font-size="11" lengthAdjust="spacingAndGlyphs" textLength="51" x="26" y="241.4761">getFlow()</text><rect fill="#F24D5C" height="6" style="stroke: #C82930; stroke-width: 1.0;" width="6" x="14" y="248.0703"/><text fill="#000000" font-family="sans-serif" font-size="11" lengthAdjust="spacingAndGlyphs" textLength="51" x="26" y="254.2808">setFlow()</text><rect fill="#F24D5C" height="6" style="stroke: #C82930; stroke-width: 1.0;" width="6" x="14" y="260.875"/><text fill="#000000" font-family="sans-serif" font-size="11" lengthAdjust="spacingAndGlyphs" textLength="72" x="26" y="267.0854">getProtocal()</text><rect fill="#F24D5C" height="6" style="stroke: #C82930; stroke-width: 1.0;" width="6" x="14" y="273.6797"/><text fill="#000000" font-family="sans-serif" font-size="11" lengthAdjust="spacingAndGlyphs" textLength="72" x="26" y="279.8901">setProtocal()</text><rect fill="#F24D5C" height="6" style="stroke: #C82930; stroke-width: 1.0;" width="6" x="14" y="286.4844"/><text fill="#000000" font-family="sans-serif" font-size="11" lengthAdjust="spacingAndGlyphs" textLength="72" x="26" y="292.6948">getTagPath()</text><rect fill="#F24D5C" height="6" style="stroke: #C82930; stroke-width: 1.0;" width="6" x="14" y="299.2891"/><text fill="#000000" font-family="sans-serif" font-size="11" lengthAdjust="spacingAndGlyphs" textLength="72" x="26" y="305.4995">setTagPath()</text><rect fill="#F24D5C" height="6" style="stroke: #C82930; stroke-width: 1.0;" width="6" x="14" y="312.0938"/><text fill="#000000" font-family="sans-serif" font-size="11" lengthAdjust="spacingAndGlyphs" textLength="96" x="26" y="318.3042">getCapturePath()</text><rect fill="#F24D5C" height="6" style="stroke: #C82930; stroke-width: 1.0;" width="6" x="14" y="324.8984"/><text fill="#000000" font-family="sans-serif" font-size="11" lengthAdjust="spacingAndGlyphs" textLength="96" x="26" y="331.1089">setCapturePath()</text><rect fill="#F24D5C" height="6" style="stroke: #C82930; stroke-width: 1.0;" width="6" x="14" y="337.7031"/><text fill="#000000" font-family="sans-serif" font-size="11" lengthAdjust="spacingAndGlyphs" textLength="145" x="26" y="343.9136">getFileProcessingTypeId()</text><rect fill="#F24D5C" height="6" style="stroke: #C82930; stroke-width: 1.0;" width="6" x="14" y="350.5078"/><text fill="#000000" font-family="sans-serif" font-size="11" lengthAdjust="spacingAndGlyphs" textLength="145" x="26" y="356.7183">setFileProcessingTypeId()</text><rect fill="#F24D5C" height="6" style="stroke: #C82930; stroke-width: 1.0;" width="6" x="14" y="363.3125"/><text fill="#000000" font-family="sans-serif" font-size="11" lengthAdjust="spacingAndGlyphs" textLength="53" x="26" y="369.5229">getType()</text><rect fill="#F24D5C" height="6" style="stroke: #C82930; stroke-width: 1.0;" width="6" x="14" y="376.1172"/><text fill="#000000" font-family="sans-serif" font-size="11" lengthAdjust="spacingAndGlyphs" textLength="53" x="26" y="382.3276">setType()</text><path d="M212,80 L212,194.5 L177.19,198.5 L212,202.5 L212,316.9922 A0,0 0 0 0 212,316.9922 L421,316.9922 A0,0 0 0 0 421,316.9922 L421,90 L411,80 L212,80 A0,0 0 0 0 212,80 " fill="#FBFB77" filter="url(#fw0l5o35qeqkd)" style="stroke: #A80036; stroke-width: 1.0;"/><path d="M411,80 L411,90 L421,90 L411,80 " fill="#FBFB77" style="stroke: #A80036; stroke-width: 1.0;"/><text fill="#000000" font-family="sans-serif" font-size="13" lengthAdjust="spacingAndGlyphs" textLength="101" x="218" y="97.0669">Responsibilities:</text><text fill="#000000" font-family="sans-serif" font-size="13" lengthAdjust="spacingAndGlyphs" textLength="71" x="218" y="112.1997">- Set/get id</text><text fill="#000000" font-family="sans-serif" font-size="13" lengthAdjust="spacingAndGlyphs" textLength="129" x="218" y="127.3325">- Set/get application</text><text fill="#000000" font-family="sans-serif" font-size="13" lengthAdjust="spacingAndGlyphs" textLength="116" x="218" y="142.4653">- Set/get category</text><text fill="#000000" font-family="sans-serif" font-size="13" lengthAdjust="spacingAndGlyphs" textLength="131" x="218" y="157.5981">- Set/get sourcetype</text><text fill="#000000" font-family="sans-serif" font-size="13" lengthAdjust="spacingAndGlyphs" textLength="94" x="218" y="172.731">- Set/get index</text><text fill="#000000" font-family="sans-serif" font-size="13" lengthAdjust="spacingAndGlyphs" textLength="149" x="218" y="187.8638">- Set/get retentionTime</text><text fill="#000000" font-family="sans-serif" font-size="13" lengthAdjust="spacingAndGlyphs" textLength="81" x="218" y="202.9966">- Set/get tag</text><text fill="#000000" font-family="sans-serif" font-size="13" lengthAdjust="spacingAndGlyphs" textLength="84" x="218" y="218.1294">- Set/get flow</text><text fill="#000000" font-family="sans-serif" font-size="13" lengthAdjust="spacingAndGlyphs" textLength="112" x="218" y="233.2622">- Set/get protocol</text><text fill="#000000" font-family="sans-serif" font-size="13" lengthAdjust="spacingAndGlyphs" textLength="110" x="218" y="248.395">- Set/get tagPath</text><text fill="#000000" font-family="sans-serif" font-size="13" lengthAdjust="spacingAndGlyphs" textLength="138" x="218" y="263.5278">- Set/get capturePath</text><text fill="#000000" font-family="sans-serif" font-size="13" lengthAdjust="spacingAndGlyphs" textLength="188" x="218" y="278.6606">- Set/get fileProcessingTypeId</text><text fill="#000000" font-family="sans-serif" font-size="13" lengthAdjust="spacingAndGlyphs" textLength="88" x="218" y="293.7935">- Set/get type</text><text fill="#000000" font-family="sans-serif" font-size="13" lengthAdjust="spacingAndGlyphs" textLength="0" x="222" y="308.9263"/><!--MD5=[6cba35ceebc3aec3cc9de9ba4bab82f3]
@startuml inline_umlgraph_3.svg
class CaptureFile {
- getId()
- setId()
- getApplication()
- setApplication()
- getCategory()
- setCategory()
- getSource()
- setSource()
- getIndex()
- setIndex()
- getRetentionTime()
- setRetentionTime()
- getTag()
- setTag()
- getFlow()
- setFlow()
- getProtocal()
- setProtocal()
- getTagPath()
- setTagPath()
- getCapturePath()
- setCapturePath()
- getFileProcessingTypeId()
- setFileProcessingTypeId()
- getType()
- setType()

 }
note right of CaptureFile
Responsibilities:
- Set/get id
- Set/get application
- Set/get category
- Set/get sourcetype
- Set/get index
- Set/get retentionTime
- Set/get tag
- Set/get flow
- Set/get protocol
- Set/get tagPath
- Set/get capturePath
- Set/get fileProcessingTypeId
- Set/get type

end note
@enduml

PlantUML version 1.2020.02(Sun Mar 01 10:22:07 UTC 2020)
(GPL source distribution)
Java Runtime: OpenJDK Runtime Environment
JVM: OpenJDK 64-Bit Server VM
Java Version: 1.8.0_292-b10
Operating System: Linux
Default Encoding: UTF-8
Language: en
Country: null
--></g></svg>