<?xml version="1.0" encoding="UTF-8" standalone="no"?><svg xmlns="http://www.w3.org/2000/svg" xmlns:xlink="http://www.w3.org/1999/xlink" contentScriptType="application/ecmascript" contentStyleType="text/css" height="117px" preserveAspectRatio="none" style="width:89px;height:117px;" version="1.1" viewBox="0 0 89 117" width="89px" zoomAndPan="magnify"><defs><filter height="300%" id="ful2lt1rtwu30" width="300%" x="-1" y="-1"><feGaussianBlur result="blurOut" stdDeviation="2.0"/><feColorMatrix in="blurOut" result="blurOut2" type="matrix" values="0 0 0 0 0 0 0 0 0 0 0 0 0 0 0 0 0 0 .4 0"/><feOffset dx="4.0" dy="4.0" in="blurOut2" result="blurOut3"/><feBlend in="SourceGraphic" in2="blurOut3" mode="normal"/></filter></defs><g><!--MD5=[49843e001dfdeb79de7734326ddc8639]
class Flow--><rect fill="#FEFECE" filter="url(#ful2lt1rtwu30)" height="99.2188" id="Flow" style="stroke: #A80036; stroke-width: 1.5;" width="71" x="7" y="7"/><ellipse cx="27.4" cy="23" fill="#ADD1B2" rx="11" ry="11" style="stroke: #A80036; stroke-width: 1.0;"/><path d="M30.3688,28.6406 Q29.7906,28.9375 29.15,29.0781 Q28.5094,29.2344 27.8063,29.2344 Q25.3063,29.2344 23.9781,27.5938 Q22.6656,25.9375 22.6656,22.8125 Q22.6656,19.6875 23.9781,18.0313 Q25.3063,16.375 27.8063,16.375 Q28.5094,16.375 29.15,16.5313 Q29.8063,16.6875 30.3688,16.9844 L30.3688,19.7031 Q29.7438,19.125 29.15,18.8594 Q28.5563,18.5781 27.9313,18.5781 Q26.5875,18.5781 25.9,19.6563 Q25.2125,20.7188 25.2125,22.8125 Q25.2125,24.9063 25.9,25.9844 Q26.5875,27.0469 27.9313,27.0469 Q28.5563,27.0469 29.15,26.7813 Q29.7438,26.5 30.3688,25.9219 L30.3688,28.6406 Z "/><text fill="#000000" font-family="sans-serif" font-size="12" lengthAdjust="spacingAndGlyphs" textLength="27" x="42.6" y="27.1543">Flow</text><line style="stroke: #A80036; stroke-width: 1.5;" x1="8" x2="77" y1="39" y2="39"/><line style="stroke: #A80036; stroke-width: 1.5;" x1="8" x2="77" y1="47" y2="47"/><text fill="#000000" font-family="sans-serif" font-size="11" lengthAdjust="spacingAndGlyphs" textLength="59" x="13" y="61.2104">setName()</text><text fill="#000000" font-family="sans-serif" font-size="11" lengthAdjust="spacingAndGlyphs" textLength="59" x="13" y="74.0151">getName()</text><text fill="#000000" font-family="sans-serif" font-size="11" lengthAdjust="spacingAndGlyphs" textLength="36" x="13" y="86.8198">setId()</text><text fill="#000000" font-family="sans-serif" font-size="11" lengthAdjust="spacingAndGlyphs" textLength="36" x="13" y="99.6245">getId()</text><!--MD5=[eacc08854575806f7219515e24fb9ecb]
@startuml inline_umlgraph_1.svg
class Flow{
    setName()
    getName()
    setId()
    getId()
}
@enduml

PlantUML version 1.2020.02(Sun Mar 01 10:22:07 UTC 2020)
(GPL source distribution)
Java Runtime: OpenJDK Runtime Environment
JVM: OpenJDK 64-Bit Server VM
Java Version: 1.8.0_292-b10
Operating System: Linux
Default Encoding: UTF-8
Language: en
Country: null
--></g></svg>