<?xml version="1.0" encoding="UTF-8" standalone="no"?><svg xmlns="http://www.w3.org/2000/svg" xmlns:xlink="http://www.w3.org/1999/xlink" contentScriptType="application/ecmascript" contentStyleType="text/css" height="320px" preserveAspectRatio="none" style="width:519px;height:320px;" version="1.1" viewBox="0 0 519 320" width="519px" zoomAndPan="magnify"><defs><filter height="300%" id="f2ielay0b0sa8" width="300%" x="-1" y="-1"><feGaussianBlur result="blurOut" stdDeviation="2.0"/><feColorMatrix in="blurOut" result="blurOut2" type="matrix" values="0 0 0 0 0 0 0 0 0 0 0 0 0 0 0 0 0 0 .4 0"/><feOffset dx="4.0" dy="4.0" in="blurOut2" result="blurOut3"/><feBlend in="SourceGraphic" in2="blurOut3" mode="normal"/></filter></defs><g><!--MD5=[d4c48abb184264016f85e3996eabaeb7]
class CaptureFileController--><rect fill="#FEFECE" filter="url(#f2ielay0b0sa8)" height="99.2188" id="CaptureFileController" style="stroke: #A80036; stroke-width: 1.5;" width="164" x="56.5" y="46.5"/><ellipse cx="71.5" cy="62.5" fill="#ADD1B2" rx="11" ry="11" style="stroke: #A80036; stroke-width: 1.0;"/><path d="M74.4688,68.1406 Q73.8906,68.4375 73.25,68.5781 Q72.6094,68.7344 71.9063,68.7344 Q69.4063,68.7344 68.0781,67.0938 Q66.7656,65.4375 66.7656,62.3125 Q66.7656,59.1875 68.0781,57.5313 Q69.4063,55.875 71.9063,55.875 Q72.6094,55.875 73.25,56.0313 Q73.9063,56.1875 74.4688,56.4844 L74.4688,59.2031 Q73.8438,58.625 73.25,58.3594 Q72.6563,58.0781 72.0313,58.0781 Q70.6875,58.0781 70,59.1563 Q69.3125,60.2188 69.3125,62.3125 Q69.3125,64.4063 70,65.4844 Q70.6875,66.5469 72.0313,66.5469 Q72.6563,66.5469 73.25,66.2813 Q73.8438,66 74.4688,65.4219 L74.4688,68.1406 Z "/><text fill="#000000" font-family="sans-serif" font-size="12" lengthAdjust="spacingAndGlyphs" textLength="132" x="85.5" y="66.6543">CaptureFileController</text><line style="stroke: #A80036; stroke-width: 1.5;" x1="57.5" x2="219.5" y1="78.5" y2="78.5"/><line style="stroke: #A80036; stroke-width: 1.5;" x1="57.5" x2="219.5" y1="86.5" y2="86.5"/><text fill="#000000" font-family="sans-serif" font-size="11" lengthAdjust="spacingAndGlyphs" textLength="44" x="62.5" y="100.7104">create()</text><text fill="#000000" font-family="sans-serif" font-size="11" lengthAdjust="spacingAndGlyphs" textLength="26" x="62.5" y="113.5151">get()</text><text fill="#000000" font-family="sans-serif" font-size="11" lengthAdjust="spacingAndGlyphs" textLength="39" x="62.5" y="126.3198">getAll()</text><text fill="#000000" font-family="sans-serif" font-size="11" lengthAdjust="spacingAndGlyphs" textLength="43" x="62.5" y="139.1245">delete()</text><!--MD5=[7c7d8a0858a4a1fe19c53dd022fe465b]
class CaptureFile--><rect fill="#FEFECE" filter="url(#f2ielay0b0sa8)" height="48" id="CaptureFile" style="stroke: #A80036; stroke-width: 1.5;" width="103" x="6" y="261"/><ellipse cx="21" cy="277" fill="#ADD1B2" rx="11" ry="11" style="stroke: #A80036; stroke-width: 1.0;"/><path d="M23.9688,282.6406 Q23.3906,282.9375 22.75,283.0781 Q22.1094,283.2344 21.4063,283.2344 Q18.9063,283.2344 17.5781,281.5938 Q16.2656,279.9375 16.2656,276.8125 Q16.2656,273.6875 17.5781,272.0313 Q18.9063,270.375 21.4063,270.375 Q22.1094,270.375 22.75,270.5313 Q23.4063,270.6875 23.9688,270.9844 L23.9688,273.7031 Q23.3438,273.125 22.75,272.8594 Q22.1563,272.5781 21.5313,272.5781 Q20.1875,272.5781 19.5,273.6563 Q18.8125,274.7188 18.8125,276.8125 Q18.8125,278.9063 19.5,279.9844 Q20.1875,281.0469 21.5313,281.0469 Q22.1563,281.0469 22.75,280.7813 Q23.3438,280.5 23.9688,279.9219 L23.9688,282.6406 Z "/><text fill="#000000" font-family="sans-serif" font-size="12" lengthAdjust="spacingAndGlyphs" textLength="71" x="35" y="281.1543">CaptureFile</text><line style="stroke: #A80036; stroke-width: 1.5;" x1="7" x2="108" y1="293" y2="293"/><line style="stroke: #A80036; stroke-width: 1.5;" x1="7" x2="108" y1="301" y2="301"/><!--MD5=[656a38efd268e924bef6718662e60931]
class CaptureFileMapper--><rect fill="#FEFECE" filter="url(#f2ielay0b0sa8)" height="48" id="CaptureFileMapper" style="stroke: #A80036; stroke-width: 1.5;" width="150" x="144.5" y="261"/><ellipse cx="159.5" cy="277" fill="#ADD1B2" rx="11" ry="11" style="stroke: #A80036; stroke-width: 1.0;"/><path d="M162.4688,282.6406 Q161.8906,282.9375 161.25,283.0781 Q160.6094,283.2344 159.9063,283.2344 Q157.4063,283.2344 156.0781,281.5938 Q154.7656,279.9375 154.7656,276.8125 Q154.7656,273.6875 156.0781,272.0313 Q157.4063,270.375 159.9063,270.375 Q160.6094,270.375 161.25,270.5313 Q161.9063,270.6875 162.4688,270.9844 L162.4688,273.7031 Q161.8438,273.125 161.25,272.8594 Q160.6563,272.5781 160.0313,272.5781 Q158.6875,272.5781 158,273.6563 Q157.3125,274.7188 157.3125,276.8125 Q157.3125,278.9063 158,279.9844 Q158.6875,281.0469 160.0313,281.0469 Q160.6563,281.0469 161.25,280.7813 Q161.8438,280.5 162.4688,279.9219 L162.4688,282.6406 Z "/><text fill="#000000" font-family="sans-serif" font-size="12" lengthAdjust="spacingAndGlyphs" textLength="118" x="173.5" y="281.1543">CaptureFileMapper</text><line style="stroke: #A80036; stroke-width: 1.5;" x1="145.5" x2="293.5" y1="293" y2="293"/><line style="stroke: #A80036; stroke-width: 1.5;" x1="145.5" x2="293.5" y1="301" y2="301"/><path d="M255.5,8 L255.5,92 L220.61,96 L255.5,100 L255.5,184.4609 A0,0 0 0 0 255.5,184.4609 L507.5,184.4609 A0,0 0 0 0 507.5,184.4609 L507.5,18 L497.5,8 L255.5,8 A0,0 0 0 0 255.5,8 " fill="#FBFB77" filter="url(#f2ielay0b0sa8)" style="stroke: #A80036; stroke-width: 1.0;"/><path d="M497.5,8 L497.5,18 L507.5,18 L497.5,8 " fill="#FBFB77" style="stroke: #A80036; stroke-width: 1.0;"/><text fill="#000000" font-family="sans-serif" font-size="13" lengthAdjust="spacingAndGlyphs" textLength="101" x="261.5" y="25.0669">Responsibilities:</text><text fill="#000000" font-family="sans-serif" font-size="13" lengthAdjust="spacingAndGlyphs" textLength="227" x="265.5" y="40.1997">- Provides endpoints for CaptureFile</text><text fill="#000000" font-family="sans-serif" font-size="13" lengthAdjust="spacingAndGlyphs" textLength="215" x="265.5" y="55.3325">- Create CaptureFile from request</text><text fill="#000000" font-family="sans-serif" font-size="13" lengthAdjust="spacingAndGlyphs" textLength="195" x="265.5" y="70.4653">- Get CaptureFile from request</text><text fill="#000000" font-family="sans-serif" font-size="13" lengthAdjust="spacingAndGlyphs" textLength="221" x="265.5" y="85.5981">- Get All CaptureFiles from request</text><text fill="#000000" font-family="sans-serif" font-size="13" lengthAdjust="spacingAndGlyphs" textLength="214" x="265.5" y="100.731">- Delete CaptureFile from request</text><text fill="#000000" font-family="sans-serif" font-size="13" lengthAdjust="spacingAndGlyphs" textLength="0" x="265.5" y="115.8638"/><text fill="#000000" font-family="sans-serif" font-size="13" lengthAdjust="spacingAndGlyphs" textLength="89" x="261.5" y="130.9966">Collaborators:</text><text fill="#000000" font-family="sans-serif" font-size="13" lengthAdjust="spacingAndGlyphs" textLength="81" x="261.5" y="146.1294">- CaptureFile</text><text fill="#000000" font-family="sans-serif" font-size="13" lengthAdjust="spacingAndGlyphs" textLength="129" x="261.5" y="161.2622">- CaptureFileMapper</text><text fill="#000000" font-family="sans-serif" font-size="13" lengthAdjust="spacingAndGlyphs" textLength="0" x="265.5" y="176.395"/><!--MD5=[913b4a221df52c02522eb6916cdf623f]
link CaptureFileController to CaptureFile--><path d="M117.43,145.64 C102.23,180.73 82.25,226.87 69.64,255.98 " fill="none" id="CaptureFileController-&gt;CaptureFile" style="stroke: #A80036; stroke-width: 1.0;"/><polygon fill="#A80036" points="67.52,260.86,74.7594,254.1823,69.5016,256.2695,67.4145,251.0117,67.52,260.86" style="stroke: #A80036; stroke-width: 1.0;"/><text fill="#000000" font-family="sans-serif" font-size="13" lengthAdjust="spacingAndGlyphs" textLength="46" x="87.5" y="227.0669">Utilizes</text><!--MD5=[316835f661eed8a4776397c0d5004ec6]
link CaptureFileController to CaptureFileMapper--><path d="M159.57,145.64 C174.77,180.73 194.75,226.87 207.36,255.98 " fill="none" id="CaptureFileController-&gt;CaptureFileMapper" style="stroke: #A80036; stroke-width: 1.0;"/><polygon fill="#A80036" points="209.48,260.86,209.5855,251.0117,207.4984,256.2695,202.2406,254.1823,209.48,260.86" style="stroke: #A80036; stroke-width: 1.0;"/><text fill="#000000" font-family="sans-serif" font-size="13" lengthAdjust="spacingAndGlyphs" textLength="51" x="196.5" y="227.0669">Calls for</text><!--MD5=[4fd1a37b9759e7992a38b78940a4cc77]
@startuml inline_umlgraph_1.svg
class CaptureFileController {
 create()
 get()
 getAll()
 delete()
}

CaptureFileController - -> CaptureFile : Utilizes
CaptureFileController - -> CaptureFileMapper : Calls for

note right of CaptureFileController
Responsibilities:
 - Provides endpoints for CaptureFile
 - Create CaptureFile from request
 - Get CaptureFile from request
 - Get All CaptureFiles from request
 - Delete CaptureFile from request

Collaborators:
- CaptureFile
- CaptureFileMapper

end note
@enduml

PlantUML version 1.2020.02(Sun Mar 01 10:22:07 UTC 2020)
(GPL source distribution)
Java Runtime: OpenJDK Runtime Environment
JVM: OpenJDK 64-Bit Server VM
Java Version: 1.8.0_292-b10
Operating System: Linux
Default Encoding: UTF-8
Language: en
Country: null
--></g></svg>