<?xml version="1.0" encoding="UTF-8" standalone="no"?><svg xmlns="http://www.w3.org/2000/svg" xmlns:xlink="http://www.w3.org/1999/xlink" contentScriptType="application/ecmascript" contentStyleType="text/css" height="195px" preserveAspectRatio="none" style="width:568px;height:195px;" version="1.1" viewBox="0 0 568 195" width="568px" zoomAndPan="magnify"><defs><filter height="300%" id="f1i3n9a1ew44ef" width="300%" x="-1" y="-1"><feGaussianBlur result="blurOut" stdDeviation="2.0"/><feColorMatrix in="blurOut" result="blurOut2" type="matrix" values="0 0 0 0 0 0 0 0 0 0 0 0 0 0 0 0 0 0 .4 0"/><feOffset dx="4.0" dy="4.0" in="blurOut2" result="blurOut3"/><feBlend in="SourceGraphic" in2="blurOut3" mode="normal"/></filter></defs><g><!--MD5=[e03ad033884419bf8035e0e73eddffb4]
class CaptureGroup--><rect fill="#FEFECE" filter="url(#f1i3n9a1ew44ef)" height="176.0469" id="CaptureGroup" style="stroke: #A80036; stroke-width: 1.5;" width="198" x="6" y="8"/><ellipse cx="56.75" cy="24" fill="#ADD1B2" rx="11" ry="11" style="stroke: #A80036; stroke-width: 1.0;"/><path d="M59.7188,29.6406 Q59.1406,29.9375 58.5,30.0781 Q57.8594,30.2344 57.1563,30.2344 Q54.6563,30.2344 53.3281,28.5938 Q52.0156,26.9375 52.0156,23.8125 Q52.0156,20.6875 53.3281,19.0313 Q54.6563,17.375 57.1563,17.375 Q57.8594,17.375 58.5,17.5313 Q59.1563,17.6875 59.7188,17.9844 L59.7188,20.7031 Q59.0938,20.125 58.5,19.8594 Q57.9063,19.5781 57.2813,19.5781 Q55.9375,19.5781 55.25,20.6563 Q54.5625,21.7188 54.5625,23.8125 Q54.5625,25.9063 55.25,26.9844 Q55.9375,28.0469 57.2813,28.0469 Q57.9063,28.0469 58.5,27.7813 Q59.0938,27.5 59.7188,26.9219 L59.7188,29.6406 Z "/><text fill="#000000" font-family="sans-serif" font-size="12" lengthAdjust="spacingAndGlyphs" textLength="88" x="77.25" y="28.1543">CaptureGroup</text><line style="stroke: #A80036; stroke-width: 1.5;" x1="7" x2="203" y1="40" y2="40"/><line style="stroke: #A80036; stroke-width: 1.5;" x1="7" x2="203" y1="48" y2="48"/><rect fill="#F24D5C" height="6" style="stroke: #C82930; stroke-width: 1.0;" width="6" x="14" y="56"/><text fill="#000000" font-family="sans-serif" font-size="11" lengthAdjust="spacingAndGlyphs" textLength="47" x="26" y="62.2104">getTag()</text><rect fill="#F24D5C" height="6" style="stroke: #C82930; stroke-width: 1.0;" width="6" x="14" y="68.8047"/><text fill="#000000" font-family="sans-serif" font-size="11" lengthAdjust="spacingAndGlyphs" textLength="47" x="26" y="75.0151">setTag()</text><rect fill="#F24D5C" height="6" style="stroke: #C82930; stroke-width: 1.0;" width="6" x="14" y="81.6094"/><text fill="#000000" font-family="sans-serif" font-size="11" lengthAdjust="spacingAndGlyphs" textLength="172" x="26" y="87.8198">getCapture_def_group_name()</text><rect fill="#F24D5C" height="6" style="stroke: #C82930; stroke-width: 1.0;" width="6" x="14" y="94.4141"/><text fill="#000000" font-family="sans-serif" font-size="11" lengthAdjust="spacingAndGlyphs" textLength="172" x="26" y="100.6245">setCapture_def_group_name()</text><rect fill="#F24D5C" height="6" style="stroke: #C82930; stroke-width: 1.0;" width="6" x="14" y="107.2188"/><text fill="#000000" font-family="sans-serif" font-size="11" lengthAdjust="spacingAndGlyphs" textLength="145" x="26" y="113.4292">getCapture_definition_id()</text><rect fill="#F24D5C" height="6" style="stroke: #C82930; stroke-width: 1.0;" width="6" x="14" y="120.0234"/><text fill="#000000" font-family="sans-serif" font-size="11" lengthAdjust="spacingAndGlyphs" textLength="145" x="26" y="126.2339">setCapture_definition_id()</text><rect fill="#F24D5C" height="6" style="stroke: #C82930; stroke-width: 1.0;" width="6" x="14" y="132.8281"/><text fill="#000000" font-family="sans-serif" font-size="11" lengthAdjust="spacingAndGlyphs" textLength="36" x="26" y="139.0386">getId()</text><rect fill="#F24D5C" height="6" style="stroke: #C82930; stroke-width: 1.0;" width="6" x="14" y="145.6328"/><text fill="#000000" font-family="sans-serif" font-size="11" lengthAdjust="spacingAndGlyphs" textLength="36" x="26" y="151.8433">setId()</text><rect fill="#F24D5C" height="6" style="stroke: #C82930; stroke-width: 1.0;" width="6" x="14" y="158.4375"/><text fill="#000000" font-family="sans-serif" font-size="11" lengthAdjust="spacingAndGlyphs" textLength="140" x="26" y="164.6479">getCapture_group_type()</text><rect fill="#F24D5C" height="6" style="stroke: #C82930; stroke-width: 1.0;" width="6" x="14" y="171.2422"/><text fill="#000000" font-family="sans-serif" font-size="11" lengthAdjust="spacingAndGlyphs" textLength="140" x="26" y="177.4526">setCapture_group_type()</text><path d="M239.5,38 L239.5,92 L204,96 L239.5,100 L239.5,153.9297 A0,0 0 0 0 239.5,153.9297 L556.5,153.9297 A0,0 0 0 0 556.5,153.9297 L556.5,48 L546.5,38 L239.5,38 A0,0 0 0 0 239.5,38 " fill="#FBFB77" filter="url(#f1i3n9a1ew44ef)" style="stroke: #A80036; stroke-width: 1.0;"/><path d="M546.5,38 L546.5,48 L556.5,48 L546.5,38 " fill="#FBFB77" style="stroke: #A80036; stroke-width: 1.0;"/><text fill="#000000" font-family="sans-serif" font-size="13" lengthAdjust="spacingAndGlyphs" textLength="101" x="245.5" y="55.0669">Responsibilities:</text><text fill="#000000" font-family="sans-serif" font-size="13" lengthAdjust="spacingAndGlyphs" textLength="108" x="261.5" y="70.1997">- can get/set Tag</text><text fill="#000000" font-family="sans-serif" font-size="13" lengthAdjust="spacingAndGlyphs" textLength="280" x="261.5" y="85.3325">- can get/set Capture definition group name</text><text fill="#000000" font-family="sans-serif" font-size="13" lengthAdjust="spacingAndGlyphs" textLength="213" x="261.5" y="100.4653">- can get/set Capture definition Id</text><text fill="#000000" font-family="sans-serif" font-size="13" lengthAdjust="spacingAndGlyphs" textLength="96" x="261.5" y="115.5981">- can get/set Id</text><text fill="#000000" font-family="sans-serif" font-size="13" lengthAdjust="spacingAndGlyphs" textLength="209" x="261.5" y="130.731">- can get/set Capture group type</text><text fill="#000000" font-family="sans-serif" font-size="13" lengthAdjust="spacingAndGlyphs" textLength="0" x="249.5" y="145.8638"/><!--MD5=[9efd434024475afe293cff4723e2d4fb]
@startuml inline_umlgraph_5.svg
Class CaptureGroup {
    - getTag()
    - setTag()
    - getCapture_def_group_name()
    - setCapture_def_group_name()
    - getCapture_definition_id()
    - setCapture_definition_id()
    - getId()
    - setId()
    - getCapture_group_type()
    - setCapture_group_type()
}

note right of CaptureGroup
Responsibilities:
    - can get/set Tag
    - can get/set Capture definition group name
    - can get/set Capture definition Id
    - can get/set Id
    - can get/set Capture group type

end note
@enduml

PlantUML version 1.2020.02(Sun Mar 01 10:22:07 UTC 2020)
(GPL source distribution)
Java Runtime: OpenJDK Runtime Environment
JVM: OpenJDK 64-Bit Server VM
Java Version: 1.8.0_292-b10
Operating System: Linux
Default Encoding: UTF-8
Language: en
Country: null
--></g></svg>