<?xml version="1.0" encoding="UTF-8" standalone="no"?>
<!DOCTYPE svg PUBLIC "-//W3C//DTD SVG 1.1//EN"
 "http://www.w3.org/Graphics/SVG/1.1/DTD/svg11.dtd">
<!-- Generated by graphviz version 2.43.0 (0)
 -->
<!-- Title: com.teragrep.cfe18.controllerTests.CaptureIndexControllerTest.testData Pages: 1 -->
<svg width="443pt" height="134pt"
 viewBox="0.00 0.00 443.00 134.00" xmlns="http://www.w3.org/2000/svg" xmlns:xlink="http://www.w3.org/1999/xlink">
<g id="graph0" class="graph" transform="scale(1 1) rotate(0) translate(4 130)">
<title>com.teragrep.cfe18.controllerTests.CaptureIndexControllerTest.testData</title>
<!-- Node1 -->
<g id="Node000001" class="node">
<title>Node1</title>
<g id="a_Node000001"><a xlink:title=" ">
<polygon fill="#999999" stroke="#666666" points="222,-78 0,-78 0,-48 222,-48 222,-78"/>
<text text-anchor="start" x="8" y="-66" font-family="Helvetica,sans-Serif" font-size="10.00">com.teragrep.cfe18.controller</text>
<text text-anchor="middle" x="111" y="-55" font-family="Helvetica,sans-Serif" font-size="10.00">Tests.CaptureIndexControllerTest.testData</text>
</a>
</g>
</g>
<!-- Node2 -->
<g id="Node000002" class="node">
<title>Node2</title>
<g id="a_Node000002"><a xlink:href="classcom_1_1teragrep_1_1cfe18_1_1controllerTests_1_1TestApiClient.html#a6e84433cb230632ee5480fe3743337bd" target="_top" xlink:title=" ">
<polygon fill="white" stroke="#666666" points="435,-126 258,-126 258,-96 435,-96 435,-126"/>
<text text-anchor="start" x="266" y="-114" font-family="Helvetica,sans-Serif" font-size="10.00">com.teragrep.cfe18.controller</text>
<text text-anchor="middle" x="346.5" y="-103" font-family="Helvetica,sans-Serif" font-size="10.00">Tests.TestApiClient.insertCapture</text>
</a>
</g>
</g>
<!-- Node1&#45;&gt;Node2 -->
<g id="edge1_Node000001_Node000002" class="edge">
<title>Node1&#45;&gt;Node2</title>
<g id="a_edge1_Node000001_Node000002"><a xlink:title=" ">
<path fill="none" stroke="#63b8ff" d="M185.24,-78.06C209.8,-83.1 237.36,-88.77 262.6,-93.96"/>
<polygon fill="#63b8ff" stroke="#63b8ff" points="262.02,-97.41 272.52,-96 263.43,-90.56 262.02,-97.41"/>
</a>
</g>
</g>
<!-- Node3 -->
<g id="Node000003" class="node">
<title>Node3</title>
<g id="a_Node000003"><a xlink:href="classcom_1_1teragrep_1_1cfe18_1_1controllerTests_1_1TestApiClient.html#a9a28c3ecb7b02eee1e6c5bbb10893cc3" target="_top" xlink:title=" ">
<polygon fill="white" stroke="#666666" points="427.5,-78 265.5,-78 265.5,-48 427.5,-48 427.5,-78"/>
<text text-anchor="start" x="273.5" y="-66" font-family="Helvetica,sans-Serif" font-size="10.00">com.teragrep.cfe18.controller</text>
<text text-anchor="middle" x="346.5" y="-55" font-family="Helvetica,sans-Serif" font-size="10.00">Tests.TestApiClient.insertFlow</text>
</a>
</g>
</g>
<!-- Node1&#45;&gt;Node3 -->
<g id="edge2_Node000001_Node000003" class="edge">
<title>Node1&#45;&gt;Node3</title>
<g id="a_edge2_Node000001_Node000003"><a xlink:title=" ">
<path fill="none" stroke="#63b8ff" d="M222.25,-63C233.26,-63 244.34,-63 255.11,-63"/>
<polygon fill="#63b8ff" stroke="#63b8ff" points="255.33,-66.5 265.33,-63 255.33,-59.5 255.33,-66.5"/>
</a>
</g>
</g>
<!-- Node4 -->
<g id="Node000004" class="node">
<title>Node4</title>
<g id="a_Node000004"><a xlink:href="classcom_1_1teragrep_1_1cfe18_1_1controllerTests_1_1TestApiClient.html#af143a3c89fe0d24ab6a99904d295f9a9" target="_top" xlink:title=" ">
<polygon fill="white" stroke="#666666" points="427,-30 266,-30 266,0 427,0 427,-30"/>
<text text-anchor="start" x="274" y="-18" font-family="Helvetica,sans-Serif" font-size="10.00">com.teragrep.cfe18.controller</text>
<text text-anchor="middle" x="346.5" y="-7" font-family="Helvetica,sans-Serif" font-size="10.00">Tests.TestApiClient.insertSink</text>
</a>
</g>
</g>
<!-- Node1&#45;&gt;Node4 -->
<g id="edge3_Node000001_Node000004" class="edge">
<title>Node1&#45;&gt;Node4</title>
<g id="a_edge3_Node000001_Node000004"><a xlink:title=" ">
<path fill="none" stroke="#63b8ff" d="M185.24,-47.94C209.8,-42.9 237.36,-37.23 262.6,-32.04"/>
<polygon fill="#63b8ff" stroke="#63b8ff" points="263.43,-35.44 272.52,-30 262.02,-28.59 263.43,-35.44"/>
</a>
</g>
</g>
</g>
</svg>
