<?xml version="1.0" encoding="UTF-8" standalone="no"?>
<!DOCTYPE svg PUBLIC "-//W3C//DTD SVG 1.1//EN"
 "http://www.w3.org/Graphics/SVG/1.1/DTD/svg11.dtd">
<!-- Generated by graphviz version 2.43.0 (0)
 -->
<!-- Title: com.teragrep.cfe18.controllerTests.CaptureSourcetypeControllerTest.testData Pages: 1 -->
<svg width="406pt" height="134pt"
 viewBox="0.00 0.00 406.00 134.00" xmlns="http://www.w3.org/2000/svg" xmlns:xlink="http://www.w3.org/1999/xlink">
<g id="graph0" class="graph" transform="scale(1 1) rotate(0) translate(4 130)">
<title>com.teragrep.cfe18.controllerTests.CaptureSourcetypeControllerTest.testData</title>
<!-- Node1 -->
<g id="Node000001" class="node">
<title>Node1</title>
<g id="a_Node000001"><a xlink:title=" ">
<polygon fill="#999999" stroke="#666666" points="185,-83.5 0,-83.5 0,-42.5 185,-42.5 185,-83.5"/>
<text text-anchor="start" x="8" y="-71.5" font-family="Helvetica,sans-Serif" font-size="10.00">com.teragrep.cfe18.controller</text>
<text text-anchor="start" x="8" y="-60.5" font-family="Helvetica,sans-Serif" font-size="10.00">Tests.CaptureSourcetypeController</text>
<text text-anchor="middle" x="92.5" y="-49.5" font-family="Helvetica,sans-Serif" font-size="10.00">Test.testData</text>
</a>
</g>
</g>
<!-- Node2 -->
<g id="Node000002" class="node">
<title>Node2</title>
<g id="a_Node000002"><a xlink:href="classcom_1_1teragrep_1_1cfe18_1_1controllerTests_1_1TestApiClient.html#a6e84433cb230632ee5480fe3743337bd" target="_top" xlink:title=" ">
<polygon fill="white" stroke="#666666" points="398,-126 221,-126 221,-96 398,-96 398,-126"/>
<text text-anchor="start" x="229" y="-114" font-family="Helvetica,sans-Serif" font-size="10.00">com.teragrep.cfe18.controller</text>
<text text-anchor="middle" x="309.5" y="-103" font-family="Helvetica,sans-Serif" font-size="10.00">Tests.TestApiClient.insertCapture</text>
</a>
</g>
</g>
<!-- Node1&#45;&gt;Node2 -->
<g id="edge1_Node000001_Node000002" class="edge">
<title>Node1&#45;&gt;Node2</title>
<g id="a_edge1_Node000001_Node000002"><a xlink:title=" ">
<path fill="none" stroke="#63b8ff" d="M185.3,-83.5C200.51,-86.89 216.15,-90.38 230.96,-93.69"/>
<polygon fill="#63b8ff" stroke="#63b8ff" points="230.54,-97.18 241.07,-95.95 232.07,-90.35 230.54,-97.18"/>
</a>
</g>
</g>
<!-- Node3 -->
<g id="Node000003" class="node">
<title>Node3</title>
<g id="a_Node000003"><a xlink:href="classcom_1_1teragrep_1_1cfe18_1_1controllerTests_1_1TestApiClient.html#a9a28c3ecb7b02eee1e6c5bbb10893cc3" target="_top" xlink:title=" ">
<polygon fill="white" stroke="#666666" points="390.5,-78 228.5,-78 228.5,-48 390.5,-48 390.5,-78"/>
<text text-anchor="start" x="236.5" y="-66" font-family="Helvetica,sans-Serif" font-size="10.00">com.teragrep.cfe18.controller</text>
<text text-anchor="middle" x="309.5" y="-55" font-family="Helvetica,sans-Serif" font-size="10.00">Tests.TestApiClient.insertFlow</text>
</a>
</g>
</g>
<!-- Node1&#45;&gt;Node3 -->
<g id="edge2_Node000001_Node000003" class="edge">
<title>Node1&#45;&gt;Node3</title>
<g id="a_edge2_Node000001_Node000003"><a xlink:title=" ">
<path fill="none" stroke="#63b8ff" d="M185.3,-63C196.11,-63 207.14,-63 217.94,-63"/>
<polygon fill="#63b8ff" stroke="#63b8ff" points="218.2,-66.5 228.2,-63 218.2,-59.5 218.2,-66.5"/>
</a>
</g>
</g>
<!-- Node4 -->
<g id="Node000004" class="node">
<title>Node4</title>
<g id="a_Node000004"><a xlink:href="classcom_1_1teragrep_1_1cfe18_1_1controllerTests_1_1TestApiClient.html#af143a3c89fe0d24ab6a99904d295f9a9" target="_top" xlink:title=" ">
<polygon fill="white" stroke="#666666" points="390,-30 229,-30 229,0 390,0 390,-30"/>
<text text-anchor="start" x="237" y="-18" font-family="Helvetica,sans-Serif" font-size="10.00">com.teragrep.cfe18.controller</text>
<text text-anchor="middle" x="309.5" y="-7" font-family="Helvetica,sans-Serif" font-size="10.00">Tests.TestApiClient.insertSink</text>
</a>
</g>
</g>
<!-- Node1&#45;&gt;Node4 -->
<g id="edge3_Node000001_Node000004" class="edge">
<title>Node1&#45;&gt;Node4</title>
<g id="a_edge3_Node000001_Node000004"><a xlink:title=" ">
<path fill="none" stroke="#63b8ff" d="M185.3,-42.5C200.51,-39.11 216.15,-35.62 230.96,-32.31"/>
<polygon fill="#63b8ff" stroke="#63b8ff" points="232.07,-35.65 241.07,-30.05 230.54,-28.82 232.07,-35.65"/>
</a>
</g>
</g>
</g>
</svg>
